<?xml version="1.0" encoding="UTF-8"?>
<svg id="Capa_2" data-name="Capa 2" xmlns="http://www.w3.org/2000/svg" viewBox="0 0 152.84 63.49">
  <defs>
    <style>
      .cls-1 {
        fill: #c98d23;
      }

      .cls-2 {
        fill: #0b3d27;
      }
    </style>
  </defs>
  <g id="Capa_1-2" data-name="Capa 1">
    <g>
      <path class="cls-1" d="M31.3,29.3v3.63c0,.79-.42,1.52-1.11,1.92l-8.77,5.06,1.66,2.88,10.42-6.02c.69-.4,1.11-1.13,1.11-1.92v-5.55h-3.32Z"/>
      <path class="cls-1" d="M34.73,60.17h-7.76c-1.22,0-2.22-.99-2.22-2.22V18.58h-3.33v39.37c0,1.22-.99,2.22-2.22,2.22h-7.76c-.92,0-1.66.74-1.66,1.66s.74,1.66,1.66,1.66h23.29c.92,0,1.66-.74,1.66-1.66s-.74-1.66-1.66-1.66Z"/>
      <path class="cls-1" d="M14.77,26.28v-3.63h-3.33v5.55c0,.79.43,1.52,1.12,1.92l10.42,6.02,1.66-2.88-8.77-5.06c-.69-.4-1.11-1.13-1.11-1.92Z"/>
      <path class="cls-1" d="M13.11,17.66c-1.84,0-3.33,1.49-3.33,3.33s1.49,3.33,3.33,3.33,3.33-1.49,3.33-3.33-1.49-3.33-3.33-3.33ZM13.11,22.65c-.92,0-1.66-.74-1.66-1.66s.74-1.66,1.66-1.66,1.66.74,1.66,1.66-.74,1.66-1.66,1.66Z"/>
      <path class="cls-1" d="M23.09,13.59c-1.84,0-3.33,1.49-3.33,3.33s1.49,3.33,3.33,3.33,3.33-1.49,3.33-3.33-1.49-3.33-3.33-3.33ZM23.09,18.58c-.92,0-1.66-.74-1.66-1.66s.74-1.66,1.66-1.66,1.66.74,1.66,1.66-.74,1.66-1.66,1.66Z"/>
      <path class="cls-1" d="M33.07,24.31c-1.84,0-3.33,1.49-3.33,3.33s1.49,3.33,3.33,3.33,3.33-1.49,3.33-3.33-1.49-3.33-3.33-3.33ZM33.07,29.3c-.92,0-1.66-.74-1.66-1.66s.74-1.66,1.66-1.66,1.66.74,1.66,1.66-.74,1.66-1.66,1.66Z"/>
      <path class="cls-2" d="M46.18,14.27v24.09c0,.8-.42,1.53-1.11,1.93l-15.55,8.98-.33.2c-.44.16-.93.16-1.38-.11-.51-.29-.78-.82-.78-1.35,0-.29.07-.55.2-.8.13-.22.31-.4.51-.51l.22-.13,13.97-8.1c.69-.38,1.11-1.11,1.11-1.91v-20.49c0-.8-.42-1.53-1.11-1.91L24.2,3.91c-.69-.4-1.53-.4-2.22,0L4.24,14.16c-.69.38-1.11,1.11-1.11,1.91v20.49c0,.8.42,1.53,1.11,1.91l14.02,8.12s.07.02.11.04c.02,0,.04.04.04.04.49.29.73.8.73,1.33,0,.27-.07.53-.2.78-.42.73-1.33,1-2.06.62-.02,0-.07-.02-.09-.04-.02,0-.04-.04-.04-.04L1.11,40.29c-.69-.4-1.11-1.13-1.11-1.93V14.27c0-.8.42-1.53,1.11-1.93L21.98.3c.69-.4,1.53-.4,2.22,0l20.87,12.04c.69.4,1.11,1.13,1.11,1.93Z"/>
      <path class="cls-2" d="M103.59,38.11c-.67,0-1.19-.19-1.55-.56-.36-.37-.54-.9-.54-1.58v-12.16c0-.7.18-1.23.54-1.59s.88-.54,1.55-.54,1.2.18,1.55.54.54.9.54,1.59v12.16c0,.68-.18,1.21-.53,1.58-.35.37-.87.56-1.56.56Z"/>
      <path class="cls-2" d="M116.68,38.16c-1.77,0-3.29-.34-4.57-1.02-1.27-.69-2.25-1.64-2.92-2.89-.67-1.24-1.01-2.69-1.01-4.37,0-1.24.2-2.37.58-3.38.39-1.01.95-1.89,1.68-2.61.74-.73,1.63-1.29,2.69-1.67,1.05-.39,2.24-.58,3.56-.58.7,0,1.42.08,2.17.24.75.16,1.41.4,1.99.71.43.23.72.52.89.87.16.35.22.7.17,1.07-.06.36-.19.69-.4.98-.21.29-.48.48-.82.58-.33.1-.7.05-1.09-.15-.46-.22-.91-.38-1.36-.49s-.91-.17-1.4-.17c-.94,0-1.72.18-2.35.54-.63.35-1.1.87-1.42,1.55-.32.69-.48,1.53-.48,2.52s.16,1.85.48,2.54c.32.69.79,1.21,1.42,1.56.63.36,1.42.53,2.35.53.4,0,.82-.05,1.28-.15.45-.1.9-.25,1.34-.46.46-.19.86-.25,1.22-.16s.65.27.86.54c.22.28.36.59.43.95.06.36.01.71-.15,1.05-.16.35-.44.63-.83.84-.53.32-1.19.57-1.97.75-.78.18-1.55.27-2.33.27Z"/>
      <path class="cls-2" d="M143.43,37.91c-.67,0-1.19-.19-1.56-.56s-.56-.89-.56-1.56v-11.82c0-.69.18-1.21.54-1.57s.88-.54,1.55-.54,1.2.18,1.55.54c.36.36.54.88.54,1.57v10.46h5.55c.58,0,1.02.15,1.33.45.31.29.46.72.46,1.28s-.16.99-.46,1.3c-.31.3-.75.45-1.33.45h-7.61Z"/>
      <path class="cls-2" d="M139.21,35.57l-5.66-12.18c-.29-.6-.62-1.03-1.02-1.3-.39-.27-.83-.41-1.35-.41s-.98.14-1.38.41-.74.7-1.01,1.3l-5.66,12.18c-.21.49-.28.92-.2,1.31.08.39.27.69.59.91.32.22.71.33,1.19.33.59,0,1.03-.14,1.32-.41.28-.27.57-.71.84-1.32l.73-1.72h7.15l.73,1.72c.26.61.55,1.05.87,1.32.33.27.79.41,1.4.41.45,0,.83-.11,1.15-.32s.5-.52.57-.91c.07-.4-.02-.83-.27-1.32ZM128.97,31.45l2.18-5.2h.05l2.2,5.2h-4.42Z"/>
      <path class="cls-2" d="M68.66,35.57l-5.66-12.18c-.29-.6-.62-1.03-1.01-1.3-.39-.27-.83-.41-1.35-.41s-.98.14-1.38.41c-.4.27-.74.7-1.01,1.3l-5.66,12.18c-.21.49-.28.92-.2,1.31.08.39.27.69.59.91.32.22.71.33,1.18.33.59,0,1.03-.14,1.32-.41.28-.27.57-.71.84-1.32l.73-1.72h7.15l.73,1.72c.26.61.55,1.05.87,1.32.33.27.79.41,1.4.41.45,0,.83-.11,1.15-.32.31-.21.5-.52.57-.91.07-.4-.02-.83-.27-1.32ZM58.41,31.45l2.18-5.2h.05l2.2,5.2h-4.42Z"/>
      <path class="cls-2" d="M82.68,23.27c-.99-.93-2.4-1.39-4.22-1.39h-5.59c-.67,0-1.19.18-1.56.54-.37.36-.56.88-.56,1.57v12c0,.67.18,1.19.54,1.56.36.37.88.56,1.55.56s1.22-.19,1.56-.56c.35-.37.53-.89.53-1.56v-3.61h3.52c1.82,0,3.23-.47,4.22-1.4.99-.94,1.49-2.22,1.49-3.86s-.5-2.92-1.49-3.86ZM79.56,28.67c-.43.34-1.03.51-1.82.51h-2.8v-4.09h2.8c.79,0,1.39.17,1.82.5.42.33.63.85.63,1.54s-.22,1.2-.63,1.54Z"/>
      <path class="cls-2" d="M98.05,23.27c-.99-.93-2.4-1.39-4.22-1.39h-5.59c-.67,0-1.19.18-1.56.54-.37.36-.56.88-.56,1.57v12c0,.67.18,1.19.54,1.56.36.37.88.56,1.55.56s1.22-.19,1.56-.56c.35-.37.53-.89.53-1.56v-3.61h3.52c1.82,0,3.23-.47,4.22-1.4.99-.94,1.49-2.22,1.49-3.86s-.5-2.92-1.49-3.86ZM94.92,28.67c-.43.34-1.03.51-1.82.51h-2.8v-4.09h2.8c.79,0,1.39.17,1.82.5.42.33.63.85.63,1.54s-.22,1.2-.63,1.54Z"/>
    </g>
  </g>
</svg>