<?xml version="1.0" standalone="no"?>
<!DOCTYPE svg PUBLIC "-//W3C//DTD SVG 20010904//EN"
 "http://www.w3.org/TR/2001/REC-SVG-20010904/DTD/svg10.dtd">
<svg version="1.0" xmlns="http://www.w3.org/2000/svg"
 width="369.000000pt" height="187.000000pt" viewBox="0 0 369.000000 187.000000"
 preserveAspectRatio="xMidYMid meet">

<g transform="translate(0.000000,187.000000) scale(0.100000,-0.100000)"
fill="#000000" stroke="none">
<path d="M1828 1743 c-36 -41 -144 -215 -184 -296 -57 -117 -71 -180 -55 -251
40 -181 223 -273 380 -192 100 53 164 211 128 313 -9 22 -52 98 -96 168 -44
70 -94 160 -112 201 -18 41 -36 74 -39 74 -4 0 -14 -8 -22 -17z m-79 -469 c19
-16 35 -42 41 -67 20 -80 42 -127 67 -147 34 -26 25 -34 -23 -21 -54 15 -97
43 -127 83 -28 37 -57 115 -57 153 0 22 5 25 34 25 22 0 45 -9 65 -26z"/>
<path d="M2830 1189 c0 -39 4 -61 13 -63 6 -2 77 -9 156 -16 296 -24 517 -66
624 -118 l57 -29 0 37 c0 23 -7 43 -17 52 -71 62 -306 125 -623 168 -85 11
-167 22 -182 25 -28 4 -28 4 -28 -56z"/>
<path d="M610 1214 c-307 -44 -515 -102 -582 -162 -11 -9 -18 -29 -18 -53 l0
-38 33 19 c86 51 249 87 537 120 101 12 186 23 188 24 2 2 2 28 0 58 l-3 55
-155 -23z"/>
<path d="M1227 1079 c-591 -24 -1018 -79 -1159 -150 -70 -36 -68 -22 -68 -434
0 -275 4 -376 13 -395 25 -50 82 -65 339 -85 l77 -6 -15 43 c-22 62 -31 218
-13 219 128 6 314 27 312 35 -1 6 3 11 10 12 194 15 706 32 975 32 308 -1 352
-3 342 -15 -11 -13 16 -15 206 -15 300 0 801 -23 1003 -46 l54 -7 -6 -86 c-3
-47 -13 -105 -21 -129 l-16 -43 83 6 c250 20 309 35 334 85 9 19 13 120 13
395 0 412 2 398 -68 434 -147 74 -555 125 -1207 151 l-270 11 -15 -23 c-54
-83 -148 -141 -244 -153 -113 -14 -240 39 -306 128 l-35 47 -65 -2 c-36 0
-150 -5 -253 -9z m93 -294 c0 -47 3 -85 8 -85 4 0 14 17 23 38 21 50 73 76
138 69 53 -6 81 -33 81 -81 0 -50 -35 -77 -109 -83 -63 -6 -75 -15 -42 -33 27
-14 81 -12 111 5 36 20 40 19 40 -16 0 -25 -6 -32 -35 -45 -80 -33 -179 -4
-192 56 -9 47 -23 35 -23 -19 l0 -50 -42 -1 c-24 -1 -57 -2 -75 -2 -103 1
-165 104 -113 190 27 44 76 72 128 72 38 0 42 2 42 25 0 13 8 29 18 34 37 22
42 14 42 -74z m728 -77 l-3 -163 -27 -3 -28 -3 0 155 c0 137 2 156 18 165 41
24 43 19 40 -151z m232 17 l0 -135 75 0 c73 0 75 -1 75 -25 l0 -25 -105 0
-105 0 0 160 0 160 30 0 30 0 0 -135z m235 -31 l0 -159 -27 -3 -28 -3 0 155
c0 137 2 156 18 165 9 6 22 9 27 7 6 -1 10 -64 10 -162z m-2016 108 c42 -20
70 -58 80 -103 l8 -34 16 37 c21 49 69 78 130 78 85 0 124 -67 74 -126 -20
-23 -34 -28 -85 -32 -65 -5 -81 -21 -43 -42 31 -16 54 -12 117 20 69 35 90 37
99 10 12 -37 100 -42 100 -5 0 16 -11 21 -60 31 -94 19 -121 70 -66 125 57 56
176 30 183 -41 4 -35 -42 -42 -57 -8 -11 26 -58 36 -81 17 -22 -18 -1 -36 54
-44 70 -10 92 -28 92 -74 0 -44 -21 -67 -74 -82 -51 -14 -109 4 -140 44 l-26
32 0 -26 c0 -32 -13 -43 -65 -59 -76 -22 -139 10 -169 85 -2 6 -18 -7 -36 -28
-48 -56 -100 -79 -197 -85 l-83 -5 0 137 c0 79 -5 146 -11 158 -14 26 -10 28
53 38 68 11 144 3 187 -18z m1435 -14 c41 -37 43 -72 8 -108 -27 -27 -37 -30
-91 -30 -34 0 -61 -3 -61 -7 0 -3 7 -15 17 -25 20 -22 77 -23 113 -3 36 20 40
19 40 -16 0 -25 -6 -32 -35 -45 -79 -33 -170 -2 -190 64 -7 24 -13 31 -27 26
-15 -4 -18 0 -18 25 0 21 5 31 15 31 8 0 24 18 35 40 25 49 61 69 122 70 35 0
53 -6 72 -22z m763 2 c22 0 72 -51 78 -81 5 -21 11 -29 21 -25 10 4 14 -3 14
-23 0 -16 -7 -31 -15 -35 -11 -4 -15 -20 -15 -56 0 -53 -1 -55 -29 -40 -12 6
-31 5 -56 -1 -80 -22 -155 18 -155 84 0 19 9 45 19 58 17 21 27 24 90 23 39
-1 71 1 71 4 0 3 -7 14 -17 24 -22 24 -69 23 -85 -2 -17 -26 -68 -28 -68 -2 0
44 64 87 115 76 11 -2 25 -4 32 -4z m331 -26 c37 -24 52 -74 52 -174 l0 -90
-30 0 -30 0 0 90 c0 82 -2 93 -24 115 -26 26 -56 25 -88 -3 -15 -12 -18 -31
-18 -97 0 -45 -2 -84 -5 -87 -3 -3 -17 -3 -30 0 l-25 4 0 128 0 128 87 1 c63
0 94 -4 111 -15z m291 -21 c14 -11 35 -36 46 -56 11 -21 28 -37 38 -37 12 0
17 -8 17 -30 0 -23 -4 -30 -20 -30 -11 0 -20 -6 -20 -14 0 -27 -51 -76 -91
-86 -55 -15 -111 3 -154 52 -30 33 -35 45 -35 89 0 89 60 143 149 135 24 -2
55 -13 70 -23z"/>
<path d="M1422 734 c-33 -23 -27 -34 17 -34 52 0 71 8 71 31 0 15 -7 19 -33
19 -18 0 -43 -7 -55 -16z"/>
<path d="M1155 715 c-55 -54 -3 -133 78 -118 26 5 27 7 27 74 l0 69 -40 0
c-30 0 -47 -7 -65 -25z"/>
<path d="M327 763 c-11 -11 -8 -211 3 -218 6 -4 36 -1 67 5 76 16 123 61 123
117 0 43 -25 78 -67 94 -28 10 -116 12 -126 2z"/>
<path d="M688 715 c-46 -26 -35 -41 25 -35 44 4 52 8 52 25 0 26 -39 30 -77
10z"/>
<path d="M1833 750 c-12 -5 -26 -17 -31 -27 -9 -16 -6 -18 41 -15 60 4 76 14
57 37 -14 17 -34 18 -67 5z"/>
<path d="M2610 631 c-24 -16 1 -45 42 -49 24 -2 39 3 53 18 10 11 16 22 13 25
-10 11 -94 15 -108 6z"/>
<path d="M3185 685 c-44 -43 -29 -106 30 -131 37 -15 71 -8 94 20 11 13 10 17
-5 23 -10 4 -33 7 -51 7 -26 1 -35 6 -39 23 -9 36 3 45 52 37 52 -7 59 8 14
31 -41 21 -67 19 -95 -10z"/>
</g>
</svg>
