<svg xmlns="http://www.w3.org/2000/svg" id="Capa_2" data-name="Capa 2" viewBox="0 0 800 768.91"><defs><style>      .cls-1 {        fill: #fff;      }      .cls-2 {        fill: #1c6292;      }      .cls-3 {        fill: #15913a;      }    </style></defs><g id="Capa_1-2" data-name="Capa 1"><g><path class="cls-1" d="M798.92,250.1c-3.41-31.47-13.56-60.34-30.17-85.8-14.53-22.28-33.83-42.31-59.01-61.24-4.8-3.6-10.1-7.33-16.61-11.67l-.27-.18c-2.33-1.57-7.78-5.24-15.6-5.24-4.53,0-9.01,1.27-12.98,3.69-8.35,5.08-16.53,10.31-24.71,17.97-20.61-24.39-46.25-46.62-77.46-67.22-5.13-3.39-10.6-5.11-16.25-5.11-4.83,0-9.41,1.26-13.62,3.75-3.59,2.14-6.73,4.5-9.61,6.66-.99.75-2.01,1.51-3.07,2.28l-16.57,11.99,1.61,2.3c-8.54-9.12-17.64-17.87-27.34-26.17-8.61-7.36-17.53-14.14-26.16-20.69-3.82-2.9-7.63-5.8-11.41-8.74-5.59-4.35-12.05-6.66-18.67-6.66-5.38,0-10.66,1.48-15.7,4.41-16.83,9.76-29.52,22.74-37.88,38.67l4.55-29.81-42.8,36.64c-.82.68-1.62,1.37-2.37,2.09-5.02,4.8-9.84,9.73-14.51,14.78l-12.85-10.11c-.7-.55-1.36-1.08-2-1.59-1.85-1.49-3.4-2.72-5.16-3.97-2.3-1.63-4.62-3.23-6.96-4.83-1.76-1.2-3.51-2.41-5.26-3.64-3.2-2.25-9.87-6.93-18.81-6.93-8.4,0-14.66,4.05-17.67,5.99-19.98,12.92-38.27,27.5-54.35,43.35-9.09,8.96-17.53,18.62-25.36,28.86-2.12-4.78-5.64-9.08-10.59-12.83-2.95-2.23-5.88-4.09-8.48-5.73-1.09-.69-2.18-1.38-3.25-2.09-4.59-3.05-10.91-6.54-19.1-6.54s-15.08,3.87-19.3,6.78c-25.16,17.4-43.89,34.36-58.96,53.38C10.07,190.04-4.08,235.22,1.01,285.01c2.31,22.67,9.02,44.85,19.93,65.93,12.89,24.89,30.3,46.79,51.77,65.08,7.22,6.15,14.72,11.59,22.13,16.96,2.7,1.95,5.39,3.91,8.05,5.89,5.4,4.02,11.17,6.06,17.15,6.06,5.21,0,10.28-1.59,14.68-4.6,5.05-3.47,10.06-7,15.29-10.69l13.26-9.33c17.61,22.46,39.63,43.02,66.62,62.21,3.38,2.4,7.33,5.19,11.46,7.81,5.07,3.23,10.52,4.87,16.21,4.87,5.99,0,11.88-1.9,17.02-5.49,2.2-1.53,7.16-4.97,7.16-4.97,5.16-3.57,10.49-7.26,15.75-11.09,2.98-2.17,9.56-7.06,11.71-15.86,13.39,14.79,28.46,28.89,45.6,42.5,8.12,6.45,16.45,12.47,24.51,18.29l.39.28c2.08,1.5,8.4,6.07,17.47,6.07s16.06-5,18.24-6.65c2.47-1.87,4.69-3.79,6.63-5.47l.8-.69c15.88-13.68,28.4-28.27,37.93-44.23l7.93,4.06,14.88,7.55,10.64-11.34c.98-1.05,1.97-2.08,2.96-3.12l15.97,11.29c1.59,1.12,3.16,2.22,4.72,3.31l.91.64c3.99,2.78,7.75,5.4,11.33,8.1,5.87,4.41,12.55,6.75,19.3,6.75s12.73-2.05,18.77-6.08c29.5-19.71,53.85-41.28,73.75-65.33l16.86,12.34c5.09,3.73,12.11,8.01,21.33,8.01s15.81-4.01,20.78-7.51c22.08-15.51,38.8-30.57,52.62-47.39,35.95-43.75,50.81-89.24,45.41-139.07Z"></path><path class="cls-1" d="M688.65,719.12c-1.64-.65-3.35-1.14-5.13-1.48.73-1.6,1.46-3.21,2.18-4.83,4.67-10.42,1.99-18.46-.37-22.73,20.58-9.99,36.85-30.11,35.54-57.4,0-.6,0-1.85,0-2.36-.44-27.8-16.15-47.81-43.11-54.91-7.08-1.87-13.77-2.77-20.43-2.77-5.19,0-10.36.57-15.36,1.71-4.69,1.06-9.08,2.47-13.22,4.15v-.1s-17.54-3.51-17.54-3.51c-1.17-.3-3.61-.93-6.88-.93,0,0-.42,0-.42,0l-.95.05c-9.45.62-17.94,2.91-25.36,6.83-4.52-3.87-10.43-5.97-16.92-5.97h-1.53c-.8,0-9.03-.04-9.88-.04-2.35,0-4.69.02-7.04.09-1.96.06-4.7.34-7.67,1.2l-8.98-1.44c-1.11-.18-2.08-.35-3.03-.52-2.4-.43-4.88-.88-7.76-1.06-2.36-.15-4.73-.19-7.11-.22-2.46-.03-4.79-.06-6.61-.28-4.48-.54-9.15-.81-13.87-.81-9.1,0-18.69.99-29.33,3.04-10.74,2.06-20.4,6.08-28.66,11.69l-13.12-7.34-.29-.17c-1.17-.72-3.35-2.06-6.38-2.99-2.47-.77-5.02-1.3-7.59-1.6-11.64-1.35-22.19-2.46-33.39-2.46-6.78,0-13.03.42-19.11,1.27-6.54.92-23.74,3.38-39.1,15.23-.67-1.57-1.51-3.06-2.54-4.48-3.92-5.41-10.1-8.87-16.97-9.5-5.02-.45-9.95-.69-14.68-.69-2.32,0-4.63.05-6.91.17-8.69.42-15.6,4.23-20.63,11.38-.72-1.11-1.54-2.17-2.44-3.16-2.07-2.27-4.52-4.09-7.25-5.42v-2.78h-24.74c-.85-.01-1.7,0-2.58.01-1.84.04-3.58.18-5.24.41,1.01-5.64,1.15-12.49-3.11-19.35-5.83-9.39-15.52-11.41-21.3-12.62-12.06-2.52-23.31-3.74-34.39-3.74-8.37,0-16.65.73-24.61,2.18-20.73,3.76-36.98,12.02-49.7,25.25-7.5,7.8-11.86,17.54-12.62,28.14-1.06,14.74,4.43,27.69,15.57,37.13h-.09c-23.14,0-26.75,21.25-28.29,30.32-2.65,15.59,5.01,27.14,20.48,30.88l1.29.32c6.19,1.49,13.21,3.19,20.63,3.94,8.93.9,16.25,1.32,23.05,1.32,12.12,0,22.92-1.35,33.02-4.14,11.24-3.1,20.92-7.89,29.02-14.25,2.69,3.74,6.31,7.09,10.89,10.03,7.42,4.76,15.86,7.27,24.4,7.27,9.55,0,18.62-3.05,26.37-8.84.28.28.56.54.84.79,6.66,6.03,14.99,9.08,24.75,9.08,3.57,0,6.8-.4,9.54-.77,10.08-1.37,17.29-6.94,21.56-16.54,1.17,1.16,2.39,2.29,3.73,3.34,3.41,2.65,7.12,5.16,11.34,7.65,6.74,3.99,13.86,6.01,21.16,6.01,8.19,0,16.06-2.63,22.65-7.5,4.33,3.82,9.93,6.32,16.42,7.09,3.35.4,6.43.43,9.08.43h1.77c.7,0,1.41,0,2.27.02h.57c12.05,0,21.99-7.3,25.94-19.06.02-.05.02-.09.04-.13.57.59,1.17,1.18,1.81,1.78-2.77,3.41-4.88,7.87-6.32,13.38-.22.86-.48,1.85-.81,2.98-1.19,4.18-3.99,13.97,2,23.54,6.01,9.61,16.39,11.46,20.84,12.26,7.65,1.36,15.43,2.05,23.1,2.05,3.55,0,7.15-.15,10.71-.44,7.23-.59,14.03-2.2,20.43-4.68-3.94,7.63-4.04,16.38-.2,23.54,3.92,7.29,11.47,12.1,20.22,12.85,1.93.16,3.95.25,6,.25,1.78,0,3.56-.06,5.31-.17,6.98-.42,13.81-1.84,20.42-4.23,1.08.68,2.06,1.2,2.82,1.57l3.75,2.49,5.92.18c.56.02,1.1.02,1.63.02,4.44,0,8.49-.79,12.08-2.23,3.56,1.6,7.28,2.45,11.11,2.45,5.96,0,11.57-2.01,16.19-5.69l-1.26,3.04,6.55.32c2.89,2.02,8.15,5.03,15.09,5.03,5.16,0,9.38-1.57,12.7-3.52,1.08.07,2.22.13,3.45.13,2.03,0,3.91-.14,5.8-.45,2.48-.4,4.78-1.22,6.89-2.33,2.27.94,4.73,1.68,7.46,2.16,3.46.61,6.85.91,10.09.91.6,0,1.2-.01,1.85-.03,3.31-.12,6.38-.46,9.24-.78l.62-.07c.24.03.49.06.74.09,2.72.34,5.8.72,9.39.72h.55c4.38-.06,10.89-.85,16.98-4.24,8.06-4.48,12.69-12.89,12.1-21.94-.6-9.16-6.39-17-15.11-20.44ZM636.26,696.23c-.12-.21-.23-.42-.35-.62.2.05.39.08.59.13-.08.17-.16.33-.24.5ZM587.86,646.08c.49-.56.94-1.03,1.41-1.53,1.51,13.37,6.82,24.94,15.45,33.89-2.98-.37-6.02-.56-9.17-.56-7.16,0-14.64.94-23.53,2.97-1.3.3-2.55.69-3.75,1.13,1.09-2.13,1.99-4.5,2.71-7.14,2.55-9.36,7.76-18.23,16.88-28.76Z"></path><g><path class="cls-3" d="M343.07,65.34c-1.61,10.51-2.6,20.83-2.65,31.34-.08,15.8,3.09,31,7.26,46.05,7.38,26.65,17.68,52.23,29.83,77.01,14.68,29.94,29.8,59.66,44.9,89.39,11.03,21.73,21.77,43.57,30.06,66.54,3.51,9.74,5.74,19.77,5.97,30.04.28,12.29-2.4,24.19-7.28,35.51-9.41,21.84-23.99,39.77-41.87,55.18-2.1,1.81-4.19,3.66-6.4,5.33-4.13,3.12-6.9,3.32-11.06.32-8.14-5.88-16.29-11.76-24.15-18-26.59-21.12-50.19-45.12-69.26-73.36-23.19-34.33-38.42-71.79-44.65-112.9-2.61-17.23-3.24-34.52-1.98-51.79,2.09-28.6,9.53-55.95,21.1-82.17,16.27-36.87,39.2-69.04,68.29-96.85.6-.58,1.27-1.09,1.9-1.64Z"></path><path class="cls-3" d="M478.09,453.47c2.34-4.74,4.86-9.4,6.98-14.23,9.86-22.46,10.24-45.28,1.32-67.99-6.16-15.7-12.73-31.29-20.1-46.46-12.32-25.38-25.61-50.3-38.15-75.57-13.59-27.38-26.68-55.01-36.77-83.92-6.99-20.02-12.73-40.39-14.14-61.66-.95-14.35-.39-28.63,4.76-42.38,6.44-17.2,18.02-29.78,33.73-38.89,4.06-2.35,7.63-2.12,11.22.68,12.3,9.58,24.99,18.7,36.83,28.83,22.02,18.84,41.3,40.24,57.26,64.55,22.03,33.55,36.76,70.05,42.36,109.78,5.52,39.12,1.81,77.61-11.83,114.93-12.83,35.13-31.25,66.96-55.89,95.1-5.34,6.09-11.06,11.85-16.61,17.76-.33-.17-.66-.33-.98-.5Z"></path><path class="cls-2" d="M286.64,72.95c-3.42,4.74-6.46,9.06-9.61,13.3-26.73,35.94-43.73,76.19-52.64,119.95-5.01,24.61-7.12,49.53-5.28,74.6,2.55,34.65,11.28,67.76,26,99.28,11.26,24.12,24.87,46.78,41.52,67.58,3.63,4.53,3.55,5.65-1.37,9.23-7.43,5.4-15.04,10.55-22.58,15.81-3.38,2.36-6.85,2.28-10.21.14-3.6-2.29-7.11-4.75-10.59-7.23-34.39-24.46-63.8-53.59-83.99-91.12-14.62-27.18-24.1-56.04-27.25-86.9-4.18-40.92,3.87-79.41,21.93-116.14,13.15-26.74,30.06-50.75,51.25-71.63,15.57-15.34,32.69-28.83,51.05-40.7,5.77-3.73,7.54-3.55,13.29.49,4.02,2.83,8.12,5.55,12.12,8.4,2.05,1.46,3.96,3.09,6.34,4.96Z"></path><path class="cls-2" d="M525.11,459.4c7.69-10.87,14.98-20.88,21.97-31.11,17.45-25.52,31.62-52.77,41.83-81.99,7.56-21.65,12.38-43.91,14.41-66.83,4.55-51.31-6.99-99.29-28.98-145.22-10.65-22.25-23.68-43.07-38.09-63.04-1.35-1.87-2.66-3.78-4.51-6.42,3.96-2.86,7.37-5.69,11.13-7.92,2.51-1.49,5.29-.85,7.84.84,41.58,27.45,77.34,60.57,101.67,104.77,15.45,28.06,24.94,57.88,27.37,90.02,3.57,47.18-8.56,90.18-33.43,129.86-22.99,36.68-53.88,65.53-89.67,89.45-4.89,3.27-9.26,3.62-14.08,0-5.6-4.21-11.42-8.14-17.45-12.4Z"></path><path class="cls-2" d="M653.4,123.08c6.86-6.51,14.22-11.18,21.67-15.72,2.57-1.56,4.61-.02,6.48,1.23,5.33,3.56,10.62,7.21,15.74,11.06,21,15.78,39.66,33.84,54.1,55.98,15.24,23.37,23.91,48.97,26.92,76.71,5.14,47.5-11.28,87.73-40.82,123.68-13.96,16.99-30.61,31-48.52,43.58-7.26,5.1-10.82,4.96-17.93-.26-4.95-3.63-9.91-7.25-15.02-10.99,4.87-8.12,9.63-15.7,14.04-23.48,14-24.73,24.24-50.86,29.55-78.89,6.63-35,3.94-69.32-6.54-103.21-8.03-25.96-20.28-49.85-35-72.56-1.39-2.14-2.8-4.27-4.67-7.11Z"></path><path class="cls-2" d="M144.53,408.11c-7.61,5.35-14.53,10.3-21.55,15.11-2.73,1.87-5.39.74-7.71-.99-9.76-7.26-19.87-14.12-29.11-22-19.38-16.52-35.06-36.15-46.81-58.83-9.52-18.4-15.61-37.83-17.72-58.5-4.77-46.68,10.29-87.06,38.87-123.15,15.4-19.45,34.2-35.16,54.49-49.2,6.03-4.17,9-4.09,15.14-.01,3.56,2.36,7.28,4.51,10.68,7.08,5.57,4.22,6.22,8.3,1.89,13.67-21.27,26.38-33.5,56.95-40.71,89.61-10.36,46.98-4.94,92.54,13.9,136.65,6.4,14.99,14.47,29.05,23.51,42.59,1.53,2.29,2.97,4.62,5.12,7.98Z"></path><path class="cls-3" d="M515.65,596.02c-1.19,5.51-2.09,10.06-3.15,14.58-4.7,20.16-9.25,40.36-14.24,60.45-2.61,10.51-7.47,19.97-15.47,27.57-8.54,8.11-18.73,12.56-30.38,13.52-9.37.77-18.72.31-28.01-1.34-7.19-1.28-8.13-2.46-6.21-9.19,2.97-10.42,1.18-9.87,12.1-8.6,5.23.61,10.67.26,15.91-.4,9.29-1.18,16.15-6.45,20.82-14.42,4.22-7.21,6.75-15.03,7.65-23.88-4.7.53-6.88,3.91-9.7,6.23-4.78,3.92-9.35,8.11-14.29,11.81-7.46,5.59-14.99,5.1-22.39-.45-14.48-10.88-14.78-11.37-13.86-28.82,1.27-24.06,17.37-42.37,41.62-47.01,11.89-2.28,24.01-3.44,36.22-1.97,4.86.58,9.81.29,14.71.6,2.49.16,4.95.75,8.65,1.34ZM485.19,612.38c-5.72-1.42-10.47.17-15.22.66-10.51,1.08-18.65,6.3-23.62,15.5-3.31,6.13-5.56,12.88-7.91,19.48-1.02,2.88-2.44,6.38.94,8.81,3.35,2.41,6.08-.12,8.71-1.79,13.95-8.88,24.52-21.09,33.51-34.76,1.46-2.21,2.24-4.88,3.59-7.9Z"></path><path class="cls-3" d="M180.16,584.95c-16.68-.85-32.2-1.8-47.72-2.35-4.86-.17-9.77.65-14.64,1.19-1.67.18-3.36.71-4.92,1.38-5.5,2.34-6.43,7.31-1.75,10.93,2.82,2.17,6.19,3.78,9.53,5.09,12.32,4.83,24.74,9.43,37.11,14.13,5.9,2.24,11.39,5.18,14.56,10.93,4.94,8.97,3.89,17.84-1.72,26.03-7.6,11.08-18.64,17.45-31.31,20.94-15.7,4.32-31.73,3.75-47.71,2.14-6.33-.64-12.6-2.21-18.81-3.71-4.61-1.11-5.41-2.26-4.63-6.82,2.23-13.09,2.71-14.07,15.35-11.52,12.14,2.45,24.4,4.39,36.83,3.84,6.37-.28,12.72-1.23,19.04-2.15,1.8-.26,3.77-1.12,5.14-2.31,5.24-4.54,4.09-12.28-2.42-15.08-5.87-2.52-12-4.45-18.08-6.46-10.75-3.54-21.62-6.75-31.29-12.89-8.05-5.1-12.38-12.21-11.68-21.95.41-5.76,2.7-10.68,6.72-14.86,10.36-10.78,23.4-16.26,37.75-18.86,16.81-3.05,33.59-2.04,50.25,1.44,8.83,1.84,9.28,2.62,6.93,11.71-.84,3.26-1.76,6.5-2.5,9.22Z"></path><path class="cls-3" d="M400.82,598.06c-2.23,9.79-4.45,19.53-6.68,29.26-2.95,12.9-5.89,25.8-8.85,38.69-.43,1.87-.88,3.75-1.49,5.56-.97,2.89-2.83,4.73-6.12,4.65-3.63-.09-7.28.12-10.87-.31-4.81-.57-7.18-3.27-7.33-8.12-.08-2.52.45-5.06.65-7.59.14-1.81.2-3.63.37-6.89-2.93,1.48-4.92,2.06-6.36,3.29-5.52,4.7-11.08,9.39-16.23,14.49-5.58,5.52-13.89,7.08-22.36,2.07-3.11-1.84-6.16-3.85-9.02-6.07-3.29-2.56-5.74-5.99-6.16-10.17-1.6-16.06,1.14-31.13,11.43-44.09,9.23-11.62,22.06-16.18,36.21-18.18,15.58-2.2,31.03-.55,46.48,1.24,1.26.15,2.52.41,3.73.78.78.24,1.47.78,2.58,1.41ZM370.8,611.61c-11.63.66-21.51.89-30.06,7.16-.85.62-1.62,1.4-2.32,2.2-7.94,8.95-11.62,19.75-13.04,31.37-.57,4.64,2.67,6.47,7.03,4.37,1.33-.64,2.58-1.49,3.8-2.35,13.33-9.33,23.69-21.36,31.86-35.33,1.01-1.73,1.43-3.81,2.74-7.41Z"></path><path class="cls-3" d="M215.41,595.72c3.2,0,6.41-.09,9.61.03,2.53.09,3.96,1.5,3.82,4.12-.11,1.91-.2,3.85-.65,5.7-3.02,12.46-6.12,24.89-9.2,37.33-.1.41-.24.82-.36,1.23-.75,2.47-.6,4.57,1.95,6.07,2.35,1.38,4.26.31,5.83-1.09,14.5-12.95,27.05-27.37,33.76-46.04,1.27-3.55,2.6-7.32,6.86-7.53,6.13-.3,12.32-.1,18.43.45,2.76.25,2.45,2.82,1.92,5.12-2.05,8.95-3.92,17.94-5.92,26.91-2.88,12.92-5.8,25.84-8.72,38.75-.91,4.03-1.8,8.49-6.68,9.16-5.9.8-12.18,1.42-17.1-3.02-3.83-3.46-2.74-8.26-2.17-12.71.21-1.68,1.09-3.28,1.23-4.95.24-3-1.87-4.45-4.51-3.12-1.29.65-2.32,1.82-3.43,2.8-5.77,5.08-11.4,10.34-17.33,15.22-8.06,6.63-18.67,7.04-27.4,1.44-6.43-4.13-7.96-7.72-6.23-15.2,2.55-11.03,5.27-22.02,7.77-33.06,1.56-6.87,2.86-13.79,4.29-20.69,1.33-6.41,1.93-6.92,8.45-7.05,1.92-.04,3.85,0,5.77,0,0,.05,0,.1,0,.15Z"></path><path class="cls-3" d="M700.14,633.22c1.45,25.05-19.78,39.61-37.41,42.57-11.5,1.93-22.94,1.02-33.59-4.66-12.45-6.64-18.54-17.32-19.48-31.03-1.9-27.71,16.87-40.97,36.9-45.52,8.74-1.98,17.32-1.37,25.92.89,17.8,4.69,27.36,16.77,27.65,35.19.01.85,0,1.71,0,2.56ZM663.44,610.23c-7.26-.53-13.33,2.9-18.18,8.91-4.21,5.22-7.45,11-8.79,17.6-1.06,5.17-2.51,10.36-.88,15.78,1.71,5.7,5.45,8.71,11.35,7.77,3.7-.59,7.61-1.63,10.76-3.56,10.79-6.61,19.5-27.51,17.19-40.06-.7-3.78-2.53-5.64-6.3-6.18-1.47-.21-2.98-.16-5.15-.26Z"></path><path class="cls-3" d="M523.43,674.78c.34-3.41.35-5.93.88-8.34,3.69-16.89,7.58-33.73,11.21-50.63,1.07-4.99,1.57-10.11,2.23-15.19.54-4.09,1.04-4.86,5.08-4.98,5.97-.17,11.95-.01,17.93-.04,3.23-.02,4.75,1.6,4.59,4.74-.14,2.76-.37,5.53-.74,8.27-.31,2.37-.92,4.92,1.66,6.26,2.41,1.25,3.93-.83,5.43-2.29,2.6-2.53,5.12-5.15,7.73-7.68,6.93-6.74,15.47-9.59,24.9-10.21.79-.05,1.61.29,2.78.53-.34,6.43-2.38,12.22-4.54,17.92-.47,1.22-2.42,2.39-3.85,2.65-11.11,2.04-19.37,8.42-26.54,16.7-9.46,10.93-17.34,22.7-21.2,36.87-1.37,5.01-2.15,5.48-7.19,5.55-6.54.1-13.09-.08-20.36-.15Z"></path><path class="cls-3" d="M594.98,728.04c3.92,8.02,11.26,11.34,16.6,16.58-4.35,4.22-5.91,4.61-9.79,1.59-4.71-3.66-9.16-7.67-13.72-11.52-1.14-.96-2.22-2.02-3.47-2.82-2.78-1.77-4.74-1.37-6.35,1.49-1.14,2.03-1.83,4.32-2.81,6.45-.61,1.34-1.14,2.84-2.12,3.88-2,2.13-4.65,2.22-7.07.95-2.45-1.28-1.93-3.6-1.03-5.63,2.93-6.64,5.98-13.23,8.92-19.86,1.44-3.26,2.75-6.58,4.29-10.28-2.69-1.08-4.74-1.91-6.97-2.81.49-3.17,2.52-4.39,5.18-4.99,10.27-2.34,20.59-3.58,31.02-1.07,1.86.45,3.74.97,5.46,1.77,6.88,3.19,8.49,11.27,2.71,16.23-3.62,3.11-8.31,5.03-12.65,7.22-2.23,1.13-4.76,1.67-8.19,2.82ZM589.61,704.27c-1.53,4.86-2.59,8.63-3.91,12.32-1.5,4.2-.25,6.44,4.03,6.26,5.67-.24,10.91-1.96,15.37-5.64,2.44-2.01,4.13-4.37,3.13-7.78-.98-3.35-3.61-4.84-6.71-5.08-4.2-.32-8.44-.08-11.92-.08Z"></path><path class="cls-3" d="M508.04,733.6c5.59,5.9,8.61,6.46,15.21,2.87,2.45-1.33,5.5-3.04,4.92-6.04-.4-2.07-2.72-4.35-4.76-5.39-4.34-2.22-9.07-3.69-13.63-5.5-2.82-1.12-5.1-2.99-4.2-6.23.57-2.06,2.01-4.36,3.75-5.5,3.36-2.19,7.12-3.89,10.88-5.32,7.65-2.92,15.63-4.16,23.85-3.81,2.58.11,5.69-.31,6.29,2.89.32,1.72-.79,4.1-1.98,5.61-1.88,2.4-5.23,3.46-7.41,1.38-6.16-5.9-12.41-2.24-18.61-.84-2.76.62-5.31,2.3-4.94,5.75.32,3.01,2.66,3.93,5.36,4.64,3.29.86,6.46,2.18,9.64,3.41,3.52,1.36,6.72,3.27,6.88,7.55.16,4.26-2.23,7.24-5.82,9.26-7.17,4.04-14.86,6.44-23.08,6.94-2.77.17-5.57.19-8.32-.04-3.73-.32-5.11-3.04-3.3-6.35,1.93-3.54,5.28-4.73,9.28-5.26Z"></path><path class="cls-3" d="M664.09,744.07c-3.49.34-7.09.86-10.7.99-2.52.09-5.1-.14-7.6-.58-5.64-.99-6.89-2.95-4.92-8.36,1.68-4.61,3.8-9.06,5.86-13.52,2.95-6.4,5.98-12.77,9.05-19.12,1.48-3.07,3.62-5.28,7.42-5.04,4.03.25,5.27,2.1,3.56,5.91-3.76,8.38-7.65,16.7-11.48,25.05-.53,1.16-1.15,2.31-1.53,3.52-1.21,3.85-.57,4.65,3.37,5.67,6.22,1.6,12.28.51,18.4-.54,1.77-.3,3.84-.29,5.47.35,2.46.97,2.83,3.74.58,4.99-2.07,1.15-4.74,1.59-7.16,1.62-3.38.04-6.77-.58-10.32-.94Z"></path><path class="cls-3" d="M545.16,745.23c-.53-.35-2.7-1-3.27-2.34-1-2.35.82-3.8,3.04-4.69,2.73-1.09,5.41-1.53,7.7.68.6.58.93,2.08.63,2.85-1.19,3.03-3.87,3.62-8.1,3.49Z"></path><path class="cls-3" d="M614.75,744.3c1.98-4.76,4.56-6.93,8.56-6.97,2.2-.02,4.69.76,4.49,3.37-.11,1.44-1.93,3.68-3.25,3.89-2.93.47-6.02-.11-9.8-.29Z"></path></g></g></g></svg>