<svg xmlns="http://www.w3.org/2000/svg" viewBox="0 0 466.01 409.16"><defs><style>.cls-1{fill:#00604f;}.cls-2{fill:#dc2f34;}</style></defs><title>logo</title><path class="cls-1" d="M431.28,363.39l6.56-4c1.39-1,3.6-2.39,6.71-4.35,24.75-16.12,42.75-29.52,53.5-39.83a140.76,140.76,0,0,0,25.61-32.43,117.67,117.67,0,0,0,13.07-36.61,138,138,0,0,0,2.15-16.38,183.22,183.22,0,0,0-.38-19.11l-0.09-1.55c0.06-.47.21-1.35-2.4-1.82a7.28,7.28,0,0,0-1.32-.14,2.08,2.08,0,0,0-1.18.26,0.79,0.79,0,0,0-.33.56l-0.28,1.49c-1.82,10.12-6.42,19.87-13.67,29s-22,21.74-43.95,37.74c-23.91,17.45-41.84,32.38-53.27,44.39h0l-5.9,6.17c-25.58,28.62-42.37,64.2-49.88,105.72L366,433.92a0.78,0.78,0,0,0,.11.65c0.17,0.25.7,0.71,2.28,1s2.24,0.06,2.49-.11a0.81,0.81,0,0,0,.33-0.57l0.27-1.48c2.19-12.07,7.66-23.47,16.25-33.9S410.91,377,431.28,363.39Z" transform="translate(-72.99 -80.78)"/><path class="cls-2" d="M422.87,304.37l6.46-4.18c1.28-.94,3.32-2.35,6.58-4.52,24.35-16.8,42-30.67,52.44-41.22a140.62,140.62,0,0,0,24.76-33.09,117.59,117.59,0,0,0,12.11-36.94,139.94,139.94,0,0,0,1.7-16.42,184.81,184.81,0,0,0-.87-19.11l-0.15-1.62,0-.1a0.78,0.78,0,0,0-.13-0.65c-0.18-.24-0.72-0.69-2.33-0.93a7.8,7.8,0,0,0-1.18-.1,2.22,2.22,0,0,0-1.33.3,0.78,0.78,0,0,0-.31.56l-0.21,1.48c-1.58,10.23-5.93,20.09-12.92,29.34S486.14,199.41,464.56,216c-23.38,18-40.9,33.41-52.09,45.77h0l-5.74,6.32c-24.82,29.31-40.68,65.31-47.09,107l-0.21,1.48a0.81,0.81,0,0,0,.12.65c0.18,0.24.71,0.68,2.32,0.93s2.24,0,2.48-.2a0.77,0.77,0,0,0,.31-0.57l0.23-1.49c1.86-12.09,7-23.64,15.35-34.31S402.88,318.45,422.87,304.37Z" transform="translate(-72.99 -80.78)"/><path class="cls-1" d="M452.23,154.24c-22.44,19.22-39.15,35.51-49.64,48.41h0l-5.4,6.62C373.91,239.83,360,276.6,355.71,318.55L355.56,320a0.8,0.8,0,0,0,.15.65c0.19,0.23.74,0.65,2.36,0.81a4.68,4.68,0,0,0,2.23-.17,0.8,0.8,0,0,0,.53-0.74l0.15-1.5c1.22-12.16,5.79-24,13.56-35.06s21.38-24.27,40.62-39.41l6.24-4.5c1.08-.88,3.09-2.47,6.34-4.88,23.39-18,40.29-32.76,50.22-43.88A140.76,140.76,0,0,0,501,157a117.36,117.36,0,0,0,10.16-37.52A135.9,135.9,0,0,0,512,103a180.06,180.06,0,0,0-1.88-19l-0.21-1.52a1,1,0,0,0-.39-1,4.4,4.4,0,0,0-2.15-.61,8.72,8.72,0,0,0-.93-0.05c-1.75,0-1.83.7-1.85,1l-0.15,1.49c-1,10.23-4.83,20.31-11.35,30S472.83,136.59,452.23,154.24Z" transform="translate(-72.99 -80.78)"/><path class="cls-1" d="M348.55,334.66a6.44,6.44,0,0,1,11-4.56,6.39,6.39,0,0,1,0,9.16A6.47,6.47,0,0,1,348.55,334.66Z" transform="translate(-72.99 -80.78)"/><path class="cls-1" d="M136.06,305.09H120.48q2.7,5.35,2.69,16.5v7.79a30.55,30.55,0,0,1-11.82,2.39q-13.22,0-20.36-7.22T83.84,305q0-12.35,7.16-19.57a23.53,23.53,0,0,1,17.43-7.26q9.3,0,21.32,6.38l0.06-11.4a83.13,83.13,0,0,0-17.52-2.38q-18.46,0-28.87,10.17T73,307.31q0,15.13,10.46,24t27.83,8.8a61.78,61.78,0,0,0,23.38-4.45,32.1,32.1,0,0,1-1.28-9.28v-7.73Q133.38,310.44,136.06,305.09Z" transform="translate(-72.99 -80.78)"/><path class="cls-1" d="M145.09,328.16a6.55,6.55,0,0,0-6.48,6.5,6.49,6.49,0,0,0,13,0A6.62,6.62,0,0,0,145.09,328.16Z" transform="translate(-72.99 -80.78)"/><path class="cls-1" d="M215.5,305.09H199.92q2.68,5.35,2.68,16.5v7.79a30.57,30.57,0,0,1-11.82,2.39q-13.22,0-20.36-7.22T163.29,305q0-12.35,7.15-19.57a23.53,23.53,0,0,1,17.43-7.26q9.3,0,21.31,6.38l0.06-11.4a83,83,0,0,0-17.52-2.38q-18.44,0-28.87,10.17t-10.41,26.39q0,15.13,10.45,24t27.82,8.8a61.73,61.73,0,0,0,23.38-4.45,32.33,32.33,0,0,1-1.28-9.28v-7.73Q212.82,310.44,215.5,305.09Z" transform="translate(-72.99 -80.78)"/><path class="cls-1" d="M225.35,328.16a6.5,6.5,0,0,0-4.6,11.09,6.49,6.49,0,0,0,9.15,0A6.52,6.52,0,0,0,225.35,328.16Z" transform="translate(-72.99 -80.78)"/><path class="cls-1" d="M342.55,289.42a56.2,56.2,0,0,1,2.55-17.47H329.78a59.59,59.59,0,0,1,2.54,17.8v11.43H303V290q0-11.83,2.55-18.06H290.2q2.55,6.49,2.55,17.61v31.91c0,2-.05,3.78-0.15,5.49h-0.23c-5.76,4.85-17.5,4.81-25,4.81q-11.65,0-18.44-7.44t-6.8-18.52a27.19,27.19,0,0,1,7.05-19q7.09-7.75,19.08-7.75a35.34,35.34,0,0,1,17.59,5.11l0.06-10.8a44.54,44.54,0,0,0-14.51-2.6q-16.62,0-28.4,10.17a32.61,32.61,0,0,0-11.73,25.86,33,33,0,0,0,9.21,23.61q9.23,9.68,24.84,9.68c5.49,0,17.59.46,26.68-.34h13.56A61.91,61.91,0,0,1,303,321.56V309.73h29.36v12.79q0,10.34-2.54,17.21h15.31q-2.55-7-2.55-17.7V289.42Z" transform="translate(-72.99 -80.78)"/><path class="cls-2" d="M220,392.33q-7.19,0-11.58-3.76a12.45,12.45,0,0,1-4.39-9.94,14.56,14.56,0,0,1,4.38-11.06q4.38-4.18,11.58-4.18a25.1,25.1,0,0,1,5.32.6,21,21,0,0,1,4.82,1.62c-0.25.87-.45,1.63-0.59,2.27s-0.3,1.41-.46,2.33l-0.44,0a9.87,9.87,0,0,0-3.45-3.2,9.42,9.42,0,0,0-4.53-1.07,8.9,8.9,0,0,0-7.35,3.42q-2.73,3.42-2.73,9.25a11.77,11.77,0,0,0,2.66,8.11,9.12,9.12,0,0,0,7.17,3,16.51,16.51,0,0,0,3.87-.46,26.8,26.8,0,0,0,.4-4.84,25.83,25.83,0,0,0-.46-5.11q1.47,0.05,3.35.05c1.26,0,2.38,0,3.37-.1a9.31,9.31,0,0,0-.24,1.72c0,0.67-.06,1.76-0.06,3.28v1q0,2.56.06,3.62a10.53,10.53,0,0,0,.22,1.76A32.76,32.76,0,0,1,220,392.33Z" transform="translate(-72.99 -80.78)"/><path class="cls-2" d="M239.53,386.87q1.77-4,3.86-8.94,3.5-8.37,5.55-14.07a12.6,12.6,0,0,0,3.13,0q2.06,5.67,5.47,14,2,5,3.72,9,1,2.35,1.45,3.34t0.81,1.67q-1.59-.1-3.62-0.1c-1.34,0-2.54,0-3.6.1-0.4-1.45-.7-2.52-0.91-3.19s-0.41-1.27-.62-1.82l-1.16-3.06q-2.46-.27-5.25-0.32a19.73,19.73,0,0,0-4.29.36c-0.43,1-.82,2-1.17,3-0.13.33-.29,0.83-0.49,1.5s-0.51,1.84-1,3.51a23,23,0,0,0-4.3,0q0.36-.64.84-1.65T239.53,386.87Zm8.19-12.43-1.29,3.29-1.19,3a29.65,29.65,0,0,0,3.48.16c1.31,0,2.56-.08,3.75-0.18l-0.06-.16q-1.89-4.88-3.53-8.94h0Z" transform="translate(-72.99 -80.78)"/><path class="cls-2" d="M270.47,386.87q0.1-4,.1-9t-0.1-9c0-1.38-.09-2.4-0.13-3.07s-0.1-1.32-.17-1.94l2.17,0.1h3.77l4.8-.1a9,9,0,0,1,6.1,1.91,6.69,6.69,0,0,1,2.19,5.31,6.2,6.2,0,0,1-2.72,5.35,9.57,9.57,0,0,1-3.8,1.57q1.57,2.8,3.92,6.61l1.45,2.3q1.41,2.23,2.09,3.23c0.45,0.66.89,1.26,1.31,1.79q-1.63-.1-3.69-0.1t-3.67.1q-1.22-2.47-3.3-6-2.46-4.23-4.36-7.3h0c0,3.06,0,5.82.06,8.27,0,1.38.09,2.4,0.13,3.07s0.1,1.32.17,1.94q-1.47-.1-3.32-0.1t-3.34.1q0.11-.93.17-1.95T270.47,386.87Zm5.92-9.88,1.22,0.06a4.55,4.55,0,0,0,3.65-1.63,6.46,6.46,0,0,0,1.38-4.32,5.08,5.08,0,0,0-1.16-3.56,4.25,4.25,0,0,0-3.28-1.25,11.68,11.68,0,0,0-1.81.14V377Z" transform="translate(-72.99 -80.78)"/><path class="cls-2" d="M298.7,387.06q0.1-4.05.1-9.19t-0.1-9.21c0-1.38-.09-2.4-0.13-3.07s-0.1-1.32-.17-1.94a26,26,0,0,0,3.15.3,31.08,31.08,0,0,0,3.17,0l4-.22q1.85-.09,2.35-0.08,6.46,0,9.93,3.53t3.47,10.09q0,7.13-3.92,11t-11.19,3.84c-0.39,0-1.22,0-2.51-.08s-2.66-.13-4.12-0.22a16,16,0,0,0-2.17,0,18.3,18.3,0,0,0-2.21.27c0.07-.62.13-1.27,0.17-1.95S298.66,388.45,298.7,387.06Zm6.06,2a31.64,31.64,0,0,0,3.88.18,8.16,8.16,0,0,0,6.94-3.12q2.37-3.12,2.37-9.13,0-5.15-2.41-7.83t-7-2.69c-1.34,0-2.58.05-3.74,0.16q-0.1,4.81-.1,11.22T304.76,389.07Z" transform="translate(-72.99 -80.78)"/><path class="cls-2" d="M332.48,392.08q0.11-.93.17-1.93c0-.67.09-1.69,0.13-3.07q0.1-4.09.1-9.22t-0.1-9.2q-0.07-2.07-.13-3.07t-0.17-1.94c0.72,0.09,1.67.16,2.88,0.22s2.32,0.09,3.35.09H340q2.62,0,5-.1a20.9,20.9,0,0,0,3-.25,16.84,16.84,0,0,0,0,3.69,20.83,20.83,0,0,0-2.77-.25q-2.1-.1-4.24-0.1h-0.65l-1.63,0v9l3.13,0q1.75,0,3.55-.09t2.46-.21a15.53,15.53,0,0,0,0,3.53q-0.66-.11-2.46-0.21t-3.55-.09l-3.13,0v9.95l0.21,0H340q2.4,0,4.81-.12a28.64,28.64,0,0,0,3.2-.28,17.31,17.31,0,0,0,0,3.74q-1.75-.15-4.16-0.25t-3.86-.1h-1.31q-1.55,0-3.35.08C334.16,391.92,333.2,392,332.48,392.08Z" transform="translate(-72.99 -80.78)"/><path class="cls-2" d="M220,441.13q-7.19,0-11.58-3.76a12.45,12.45,0,0,1-4.39-9.94,14.57,14.57,0,0,1,4.38-11.06q4.38-4.18,11.58-4.17a25.12,25.12,0,0,1,5.32.6,21,21,0,0,1,4.82,1.61c-0.25.87-.45,1.63-0.59,2.27s-0.3,1.41-.46,2.33l-0.44,0a9.81,9.81,0,0,0-3.45-3.2,9.42,9.42,0,0,0-4.53-1.07,8.9,8.9,0,0,0-7.35,3.42q-2.73,3.42-2.73,9.25a11.77,11.77,0,0,0,2.66,8.11,9.11,9.11,0,0,0,7.17,3,16.34,16.34,0,0,0,3.87-.46,26.79,26.79,0,0,0,.4-4.83,25.79,25.79,0,0,0-.46-5.11c1,0,2.1.05,3.35,0.05s2.38,0,3.37-.1a9.23,9.23,0,0,0-.24,1.72c0,0.67-.06,1.76-0.06,3.29v1q0,2.57.06,3.62a10.58,10.58,0,0,0,.22,1.76A32.76,32.76,0,0,1,220,441.13Z" transform="translate(-72.99 -80.78)"/><path class="cls-2" d="M240.63,435.67q0.1-4,.1-9t-0.1-9c0-1.37-.08-2.39-0.13-3.06s-0.1-1.32-.17-2c1,0.07,2.09.1,3.32,0.1s2.36,0,3.34-.1q-0.11.93-.17,1.94c0,0.67-.09,1.69-0.13,3.07q-0.1,4-.1,9t0.1,9c0,1.38.09,2.4,0.13,3.07s0.1,1.32.17,1.94c-1-.07-2.09-0.1-3.32-0.1s-2.36,0-3.34.1q0.11-1,.17-2C240.54,438,240.58,437,240.63,435.67Z" transform="translate(-72.99 -80.78)"/><path class="cls-2" d="M281.73,427.71q0,6.72-3.07,10.07t-9.28,3.35q-6,0-9-3t-3-9V427l-0.05-9.29c0-1.18,0-2.11-.08-2.78s-0.09-1.41-.18-2.23q1.46,0.1,3.3.1t3.32-.1q-0.15,1.17-.22,2.18c-0.05.67-.09,1.62-0.14,2.83q-0.1,4.12-.1,9.27v1.69q0,4.84,1.84,7.15t5.69,2.32a6.68,6.68,0,0,0,5.71-2.6q1.95-2.59,1.94-7.59v-1l-0.05-9.29c0-1.29,0-2.26-.07-2.92s-0.08-1.36-.14-2.09a19,19,0,0,0,2.05.1,18.56,18.56,0,0,0,2-.1c-0.11.94-.19,1.75-0.24,2.41s-0.09,1.54-.11,2.6q-0.1,4.11-.1,9.27v0.78Z" transform="translate(-72.99 -80.78)"/><path class="cls-2" d="M303.79,418.08a5,5,0,0,0-1.71-2.52,4.91,4.91,0,0,0-2.92-.78,4.35,4.35,0,0,0-3,1,3.28,3.28,0,0,0-1.18,2.58,3.62,3.62,0,0,0,1.17,2.73,17.91,17.91,0,0,0,4.42,2.66,12.63,12.63,0,0,1,4.79,3.58,7.75,7.75,0,0,1,1.53,4.81,8.27,8.27,0,0,1-2.84,6.41,10.25,10.25,0,0,1-7.12,2.56,15.86,15.86,0,0,1-3.6-.43,16.36,16.36,0,0,1-3.46-1.23c0.29-1,.52-1.79.69-2.49s0.34-1.54.51-2.51l0.85,0a6.41,6.41,0,0,0,2,3.21,5.57,5.57,0,0,0,3.48,1,5,5,0,0,0,3.39-1.17,3.85,3.85,0,0,0,.12-5.75,20.1,20.1,0,0,0-4.73-2.81,12.16,12.16,0,0,1-4.63-3.44,7.52,7.52,0,0,1-1.47-4.66,8.29,8.29,0,0,1,2.56-6.21,8.88,8.88,0,0,1,6.42-2.47,13,13,0,0,1,3.38.44,16.4,16.4,0,0,1,3.4,1.37q-0.46,1.13-.74,2t-0.62,2Z" transform="translate(-72.99 -80.78)"/><path class="cls-2" d="M319.67,428.14V415.28q-2.09,0-4.15.11a29.52,29.52,0,0,0-3.22.29,13.41,13.41,0,0,0,0-3.28q1.27,0.16,4.15.28c1.91,0.08,3.73.12,5.46,0.12h1.45c1.72,0,3.54,0,5.46-.12s3.29-.17,4.14-0.28a13.41,13.41,0,0,0,0,3.28,29.52,29.52,0,0,0-3.22-.29q-2.06-.09-4.15-0.11v12.86q0,4.52.06,7t0.25,5.52c-1-.07-2-0.1-3.24-0.1s-2.31,0-3.28.1q0.19-3,.25-5.52T319.67,428.14Z" transform="translate(-72.99 -80.78)"/><path class="cls-2" d="M340.71,435.67q0.1-4,.1-9t-0.1-9q-0.07-2-.13-3.06c0-.67-0.1-1.32-0.17-2q1.47,0.1,3.32.1t3.35-.1c-0.07.62-.13,1.27-0.17,1.94s-0.09,1.69-.13,3.07q-0.1,4-.1,9t0.1,9c0,1.38.09,2.4,0.13,3.07s0.1,1.32.17,1.94c-1-.07-2.09-0.1-3.32-0.1s-2.36,0-3.34.1c0.07-.64.13-1.29,0.17-2S340.66,437,340.71,435.67Z" transform="translate(-72.99 -80.78)"/><path class="cls-2" d="M228.2,484.63q-0.35,1-.56,1.78t-0.4,1.84a17.89,17.89,0,0,1-7.53,1.69q-7.09,0-11.42-3.77a12.54,12.54,0,0,1-4.33-10,14.63,14.63,0,0,1,4.33-11q4.33-4.18,11.43-4.18a23.33,23.33,0,0,1,4.54.43,18.06,18.06,0,0,1,3.95,1.22c-0.25.88-.45,1.64-0.59,2.29s-0.3,1.42-.46,2.33h-0.44a8.59,8.59,0,0,0-3-2.76,7.79,7.79,0,0,0-3.83-.93,8.28,8.28,0,0,0-6.86,3.23q-2.55,3.22-2.54,8.72t2.66,8.65a8.87,8.87,0,0,0,7.18,3.19,10.09,10.09,0,0,0,3.92-.74,11,11,0,0,0,3.38-2.29Z" transform="translate(-72.99 -80.78)"/><path class="cls-2" d="M236,484.47q0.1-4,.1-9t-0.1-9q-0.06-2.07-.13-3.07c0-.67-0.1-1.31-0.17-1.94,1,0.07,2.09.1,3.32,0.1s2.36,0,3.34-.1c-0.07.63-.13,1.27-0.17,1.94s-0.09,1.69-.13,3.07q-0.08,2.8-.06,6,2.8,0.28,6.1.3a50.08,50.08,0,0,0,6.16-.35c0-2.14,0-4.15-.08-6q-0.06-2.06-.13-3.06c0-.67-0.1-1.31-0.17-1.93,1,0.07,2.09.1,3.32,0.1s2.36,0,3.34-.1c-0.07.63-.13,1.27-0.17,1.94s-0.09,1.69-.13,3.07q-0.1,4-.1,9t0.1,9q0.07,2.07.13,3.07c0,0.67.1,1.31,0.17,1.94-1-.07-2.09-0.1-3.32-0.1s-2.36,0-3.35.1c0.07-.62.13-1.27,0.17-1.94s0.09-1.7.13-3.08l0.1-8.26a62.37,62.37,0,0,0-12.28,0q-0.06,4.59.06,8.26c0,1.38.09,2.41,0.13,3.08s0.1,1.32.17,1.94c-1-.07-2.09-0.1-3.32-0.1s-2.36,0-3.35.1c0.07-.62.13-1.27,0.17-2S236,485.85,236,484.47Z" transform="translate(-72.99 -80.78)"/><path class="cls-2" d="M295.25,476.51q0,6.72-3.07,10.07t-9.28,3.35q-6,0-9-3t-3-9v-2.21l-0.05-9.29q0-1.77-.08-2.77c0-.67-0.09-1.42-0.18-2.24,1,0.07,2.07.1,3.3,0.1s2.34,0,3.32-.1q-0.15,1.17-.22,2.18c-0.05.67-.09,1.62-0.14,2.83q-0.1,4.12-.1,9.28v1.69q0,4.84,1.84,7.16t5.69,2.32a6.68,6.68,0,0,0,5.71-2.6q1.95-2.6,1.94-7.59v-1l-0.05-9.29q0-1.93-.07-2.92c0-.66-0.08-1.36-0.14-2.09a18.24,18.24,0,0,0,2.05.1,17.79,17.79,0,0,0,2-.1c-0.11.94-.19,1.75-0.24,2.42s-0.09,1.53-.11,2.59q-0.1,4.12-.1,9.27v0.78Z" transform="translate(-72.99 -80.78)"/><path class="cls-2" d="M327.47,484.63q-0.36,1-.56,1.78t-0.4,1.84a17.89,17.89,0,0,1-7.53,1.69q-7.09,0-11.42-3.77a12.55,12.55,0,0,1-4.33-10,14.63,14.63,0,0,1,4.33-11Q311.9,461,319,461a23.36,23.36,0,0,1,4.54.43,18,18,0,0,1,3.94,1.22q-0.37,1.32-.59,2.29c-0.15.65-.3,1.42-0.45,2.33H326a8.64,8.64,0,0,0-3-2.76,7.8,7.8,0,0,0-3.83-.93,8.27,8.27,0,0,0-6.86,3.23q-2.55,3.22-2.55,8.72t2.66,8.65a8.86,8.86,0,0,0,7.17,3.19,10.07,10.07,0,0,0,3.92-.74,11,11,0,0,0,3.38-2.29Z" transform="translate(-72.99 -80.78)"/><path class="cls-2" d="M335.3,484.47q0.1-4,.1-9t-0.1-9c0-1.38-.08-2.4-0.13-3.07s-0.1-1.31-.17-1.94c1,0.07,2.09.1,3.32,0.1s2.36,0,3.34-.1c-0.07.63-.13,1.27-0.17,1.94s-0.09,1.69-.13,3.07q-0.08,2.8-.06,6,2.8,0.28,6.1.3a50.08,50.08,0,0,0,6.16-.35c0-2.14,0-4.15-.08-6q-0.07-2.06-.13-3.06c0-.67-0.1-1.31-0.17-1.93,1,0.07,2.08.1,3.32,0.1s2.36,0,3.35-.1c-0.08.63-.13,1.27-0.18,1.94s-0.09,1.69-.13,3.07q-0.1,4-.1,9t0.1,9q0.06,2.07.13,3.07c0,0.67.1,1.31,0.18,1.94-1-.07-2.09-0.1-3.33-0.1s-2.36,0-3.34.1c0.07-.62.13-1.27,0.17-1.94s0.09-1.7.13-3.08l0.09-8.26a62.37,62.37,0,0,0-12.28,0q-0.06,4.59.06,8.26c0,1.38.09,2.41,0.13,3.08s0.1,1.32.17,1.94c-1-.07-2.09-0.1-3.32-0.1s-2.36,0-3.34.1c0.07-.62.13-1.27,0.17-2S335.26,485.85,335.3,484.47Z" transform="translate(-72.99 -80.78)"/><path class="cls-2" d="M394.52,476.51q0,6.72-3.07,10.07t-9.29,3.35q-6,0-9-3t-3-9v-2.21L370,466.46q0-1.77-.07-2.77c0-.67-0.09-1.42-0.18-2.24,1,0.07,2.07.1,3.3,0.1s2.34,0,3.31-.1c-0.09.78-.17,1.51-0.22,2.18s-0.09,1.62-.14,2.83q-0.1,4.12-.1,9.28v1.69q0,4.84,1.84,7.16t5.69,2.32a6.68,6.68,0,0,0,5.71-2.6q1.94-2.6,1.94-7.59v-1l-0.05-9.29q0-1.93-.06-2.92c0-.66-0.08-1.36-0.14-2.09a18.26,18.26,0,0,0,2.06.1,17.68,17.68,0,0,0,2-.1c-0.11.94-.19,1.75-0.24,2.42s-0.09,1.53-.11,2.59q-0.1,4.12-.1,9.27v0.78Z" transform="translate(-72.99 -80.78)"/><path class="cls-2" d="M410.43,477.78q-1.35-2.63-3-5.69t-3.12-5.61l-2.47-4.23a6.51,6.51,0,0,1-.45-0.79q1.73,0.1,3.93.1t3.93-.1l2.2,5.28c0.39,0.94.64,1.51,0.74,1.72q1.61,3.43,2.94,6.06h0l1.87-3.82,1.95-4.22q0.28-.58.66-1.58t1.25-3.43a20.19,20.19,0,0,0,2.12.1,20,20,0,0,0,2.1-.1c-0.25.39-.56,0.91-0.93,1.58s-1,1.81-1.83,3.43l-2.68,5.19-3,5.95a54.58,54.58,0,0,0-.28,5.63l0,1.23c0.05,1.42.1,2.46,0.15,3.13a18,18,0,0,0,.21,1.88c-1-.07-2.05-0.1-3.27-0.1s-2.33,0-3.29.1q0.19-3.06.25-4.56t0.06-3v-4.19Z" transform="translate(-72.99 -80.78)"/><path class="cls-2" d="M458.72,466.88a5.06,5.06,0,0,0-1.71-2.52,4.91,4.91,0,0,0-2.92-.79,4.33,4.33,0,0,0-3,1,3.28,3.28,0,0,0-1.18,2.58,3.63,3.63,0,0,0,1.17,2.73,17.92,17.92,0,0,0,4.42,2.67,12.62,12.62,0,0,1,4.8,3.58,7.74,7.74,0,0,1,1.53,4.81,8.26,8.26,0,0,1-2.84,6.41,10.24,10.24,0,0,1-7.11,2.56,15.87,15.87,0,0,1-3.6-.43,16.14,16.14,0,0,1-3.46-1.23q0.44-1.43.69-2.5t0.51-2.51l0.85,0a6.4,6.4,0,0,0,2,3.2,5.55,5.55,0,0,0,3.47,1,5,5,0,0,0,3.39-1.17,3.71,3.71,0,0,0,1.35-2.94,3.75,3.75,0,0,0-1.23-2.81,20.1,20.1,0,0,0-4.73-2.81,12.13,12.13,0,0,1-4.63-3.44,7.5,7.5,0,0,1-1.47-4.65,8.3,8.3,0,0,1,2.56-6.22,8.88,8.88,0,0,1,6.42-2.47,13,13,0,0,1,3.38.44,16.44,16.44,0,0,1,3.4,1.38c-0.31.75-.55,1.41-0.74,2s-0.39,1.23-.62,2Z" transform="translate(-72.99 -80.78)"/><path class="cls-2" d="M472,483.22a3.23,3.23,0,0,1,2.39,1,3.38,3.38,0,0,1-4.78,4.77A3.36,3.36,0,0,1,472,483.22Z" transform="translate(-72.99 -80.78)"/><path class="cls-2" d="M483.26,484.47q1.77-4,3.86-8.94,3.5-8.36,5.55-14.07a12.17,12.17,0,0,0,3.13,0q2.06,5.66,5.47,14,2,5,3.72,9,1,2.34,1.45,3.34c0.31,0.66.58,1.22,0.81,1.67-1.06-.07-2.27-0.1-3.62-0.1s-2.54,0-3.6.1q-0.6-2.19-.9-3.19t-0.63-1.82l-1.16-3.06q-2.46-.28-5.25-0.32a19.55,19.55,0,0,0-4.29.36c-0.43,1-.82,2-1.17,3q-0.2.5-.49,1.5c-0.19.67-.51,1.84-1,3.51a23,23,0,0,0-4.3,0q0.36-.63.84-1.65C482,487.17,482.55,486,483.26,484.47ZM491.45,472l-1.29,3.29-1.19,3a29.12,29.12,0,0,0,3.48.16q2,0,3.75-.18l-0.06-.16q-1.88-4.88-3.53-8.95h0Z" transform="translate(-72.99 -80.78)"/><path class="cls-2" d="M516.4,483.22a3.33,3.33,0,1,1-2.39,1A3.23,3.23,0,0,1,516.4,483.22Z" transform="translate(-72.99 -80.78)"/></svg>